<?xml version="1.0" encoding="utf-8"?><!DOCTYPE svg PUBLIC "-//W3C//DTD SVG 1.1//EN" "http://www.w3.org/Graphics/SVG/1.1/DTD/svg11.dtd"><svg version="1.1" baseProfile="full" xmlns="http://www.w3.org/2000/svg" xmlns:xlink="http://www.w3.org/1999/xlink" xmlns:ev="http://www.w3.org/2001/xml-events"   height="37px"   width="202px" ><path fill="rgb( 255, 255, 255 )" d="M193.952,13.727 C193.952,13.727 193.952,0.70499999999998 193.952,0.70499999999998 C193.952,0.70499999999998 195.802,0.70499999999998 195.802,0.70499999999998 C195.802,0.70499999999998 195.802,12.031 195.802,12.031 C195.802,12.031 201.621,12.031 201.621,12.031 C201.621,12.031 201.621,13.727 201.621,13.727 C201.621,13.727 193.952,13.727 193.952,13.727 ZM176.988,22.978 C176.988,22.978 184.314,22.978 184.314,22.978 C184.314,22.978 184.314,24.637 184.314,24.637 C184.314,24.637 178.838,24.637 178.838,24.637 C178.838,24.637 178.838,28.608 178.838,28.608 C178.838,28.608 184.129,28.608 184.129,28.608 C184.129,28.608 184.129,30.276 184.129,30.276 C184.129,30.276 178.838,30.276 178.838,30.276 C178.838,30.276 178.838,34.322 178.838,34.322 C178.838,34.322 184.49,34.322 184.49,34.322 C184.49,34.322 184.49,35.981 184.49,35.981 C184.49,35.981 176.988,35.981 176.988,35.981 C176.988,35.981 176.988,22.978 176.988,22.978 ZM160.502,9.86799999999999 C160.502,9.86799999999999 154.988,9.86799999999999 154.988,9.86799999999999 C154.988,9.86799999999999 153.374,13.727 153.374,13.727 C153.374,13.727 151.472,13.727 151.472,13.727 C151.472,13.727 157.023,0.63 157.023,0.63 C157.023,0.63 158.323,0.63 158.323,0.63 C158.323,0.63 164.118,13.727 164.118,13.727 C164.118,13.727 162.224,13.727 162.224,13.727 C162.224,13.727 160.502,9.86799999999999 160.502,9.86799999999999 ZM157.656,3.49200000000002 C157.656,3.49200000000002 155.723,8.209 155.723,8.209 C155.723,8.209 159.741,8.209 159.741,8.209 C159.741,8.209 157.656,3.49200000000002 157.656,3.49200000000002 ZM141.132,36.149 C138.992,36.149 137.282,35.52 136.002,34.261 C134.722,33.003 134.083,31.451 134.083,29.605 C134.083,27.66 134.746,26.041 136.072,24.749 C137.397,23.456 139.06,22.81 141.058,22.81 C141.785,22.81 142.476,22.889 143.13,23.047 C143.784,23.206 144.61,23.496 145.609,23.919 C145.609,23.919 145.609,25.821 145.609,25.821 C144.067,24.92 142.538,24.469 141.021,24.469 C139.608,24.469 138.418,24.954 137.45,25.923 C136.482,26.893 135.998,28.083 135.998,29.493 C135.998,30.973 136.482,32.181 137.45,33.12 C138.418,34.058 139.664,34.527 141.187,34.527 C141.927,34.527 142.812,34.356 143.842,34.014 C143.842,34.014 144.018,33.959 144.018,33.959 C144.018,33.959 144.018,31.246 144.018,31.246 C144.018,31.246 141.53,31.246 141.53,31.246 C141.53,31.246 141.53,29.587 141.53,29.587 C141.53,29.587 145.868,29.587 145.868,29.587 C145.868,29.587 145.868,35.105 145.868,35.105 C144.277,35.801 142.698,36.149 141.132,36.149 ZM121.634,11.635 C121.421,11.973 121.16,12.276 120.852,12.543 C119.828,13.432 118.49,13.876 116.837,13.876 C115.154,13.876 113.803,13.435 112.785,12.553 C112.477,12.279 112.217,11.973 112.004,11.635 C111.791,11.296 111.615,10.881 111.477,10.39 C111.338,9.899 111.268,9.12900000000002 111.268,8.07799999999997 C111.268,8.07799999999997 111.268,0.70499999999998 111.268,0.70499999999998 C111.268,0.70499999999998 113.128,0.70499999999998 113.128,0.70499999999998 C113.128,0.70499999999998 113.128,8.09699999999998 113.128,8.09699999999998 C113.128,9.32100000000003 113.267,10.173 113.544,10.651 C113.822,11.13 114.244,11.513 114.811,11.802 C115.379,12.091 116.048,12.236 116.819,12.236 C117.916,12.236 118.811,11.947 119.502,11.369 C119.865,11.058 120.127,10.692 120.288,10.269 C120.448,9.846 120.528,9.12200000000001 120.528,8.09699999999998 C120.528,8.09699999999998 120.528,0.70499999999998 120.528,0.70499999999998 C120.528,0.70499999999998 122.388,0.70499999999998 122.388,0.70499999999998 C122.388,0.70499999999998 122.388,8.09699999999998 122.388,8.09699999999998 C122.388,9.09800000000001 122.315,9.85300000000001 122.17,10.362 C122.025,10.872 121.847,11.296 121.634,11.635 ZM101.854,32.141 C101.854,32.141 96.34,32.141 96.34,32.141 C96.34,32.141 94.726,36 94.726,36 C94.726,36 92.824,36 92.824,36 C92.824,36 98.375,22.903 98.375,22.903 C98.375,22.903 99.675,22.903 99.675,22.903 C99.675,22.903 105.47,36 105.47,36 C105.47,36 103.576,36 103.576,36 C103.576,36 101.854,32.141 101.854,32.141 ZM99.008,25.765 C99.008,25.765 97.075,30.482 97.075,30.482 C97.075,30.482 101.093,30.482 101.093,30.482 C101.093,30.482 99.008,25.765 99.008,25.765 ZM77.306,5.887 C77.306,5.887 78.7190000000001,6.73000000000002 78.7190000000001,6.73000000000002 C80.295,7.67899999999997 81.083,8.88600000000002 81.083,10.353 C81.083,11.397 80.736,12.245 80.042,12.898 C79.349,13.55 78.447,13.876 77.337,13.876 C76.0599999999999,13.876 74.897,13.481 73.849,12.69 C73.849,12.69 73.849,10.323 73.849,10.323 C74.848,11.598 76.004,12.236 77.318,12.236 C77.898,12.236 78.38,12.073 78.766,11.748 C79.151,11.423 79.3440000000001,11.016 79.3440000000001,10.527 C79.3440000000001,9.73399999999998 78.776,8.98200000000003 77.6420000000001,8.27100000000002 C77.6420000000001,8.27100000000002 76.236,7.41000000000003 76.236,7.41000000000003 C75.354,6.86700000000002 74.726,6.334 74.353,5.80799999999999 C73.98,5.28300000000002 73.793,4.67899999999997 73.793,3.995 C73.793,2.97000000000003 74.146,2.137 74.853,1.49700000000001 C75.559,0.85700000000003 76.476,0.53699999999998 77.605,0.53699999999998 C78.684,0.53699999999998 79.674,0.84199999999998 80.574,1.45299999999997 C80.574,1.45299999999997 80.574,3.56900000000002 80.574,3.56900000000002 C79.643,2.666 78.641,2.21499999999997 77.568,2.21499999999997 C76.963,2.21499999999997 76.467,2.35599999999999 76.078,2.637 C75.6900000000001,2.91899999999998 75.496,3.27999999999997 75.496,3.71899999999999 C75.496,4.10899999999998 75.639,4.47399999999999 75.925,4.815 C76.211,5.15499999999997 76.671,5.51299999999998 77.306,5.887 ZM61.187,25.867 C61.187,25.867 57.213,30.901 57.213,30.901 C57.213,30.901 56.871,30.901 56.871,30.901 C56.871,30.901 52.852,25.867 52.852,25.867 C52.852,25.867 52.852,36 52.852,36 C52.852,36 51.001,36 51.001,36 C51.001,36 51.001,22.978 51.001,22.978 C51.001,22.978 52.753,22.978 52.753,22.978 C52.753,22.978 57.047,28.326 57.047,28.326 C57.047,28.326 61.316,22.978 61.316,22.978 C61.316,22.978 63.046,22.978 63.046,22.978 C63.046,22.978 63.046,36 63.046,36 C63.046,36 61.187,36 61.187,36 C61.187,36 61.187,25.867 61.187,25.867 ZM41.3049999999999,0.70499999999998 C41.3049999999999,0.70499999999998 43.155,0.70499999999998 43.155,0.70499999999998 C43.155,0.70499999999998 43.155,13.727 43.155,13.727 C43.155,13.727 41.3049999999999,13.727 41.3049999999999,13.727 C41.3049999999999,13.727 41.3049999999999,0.70499999999998 41.3049999999999,0.70499999999998 ZM17.902,22.978 C17.902,22.978 19.752,22.978 19.752,22.978 C19.752,22.978 19.752,36 19.752,36 C19.752,36 17.902,36 17.902,36 C17.902,36 17.902,22.978 17.902,22.978 ZM5.56899999999996,13.783 C5.56899999999996,13.783 0,0.70499999999998 0,0.70499999999998 C0,0.70499999999998 1.86199999999997,0.70499999999998 1.86199999999997,0.70499999999998 C1.86199999999997,0.70499999999998 5.74900000000002,9.84899999999999 5.74900000000002,9.84899999999999 C5.74900000000002,9.84899999999999 9.61000000000001,0.70499999999998 9.61000000000001,0.70499999999998 C9.61000000000001,0.70499999999998 11.452,0.70499999999998 11.452,0.70499999999998 C11.452,0.70499999999998 5.98900000000003,13.783 5.98900000000003,13.783 C5.98900000000003,13.783 5.56899999999996,13.783 5.56899999999996,13.783 Z "/></svg>